<svg width="109" height="127" viewBox="0 0 109 127" fill="none" xmlns="http://www.w3.org/2000/svg">
<path d="M75.1658 60.4492H60.7052C60.1675 60.4492 59.6297 60.6672 59.2373 61.0596C58.8595 61.4375 58.627 61.9752 58.627 62.5275V76.9881C58.627 78.1362 59.5571 79.0518 60.6907 79.0518C61.8243 79.0518 62.7544 78.1217 62.7544 76.9881V64.5912H75.1513C76.2994 64.5912 77.215 63.6611 77.215 62.5275C77.2295 61.3793 76.2994 60.4492 75.1658 60.4492Z" fill="#2865E0"/>
<path d="M33.8322 64.5912H46.229V76.9881C46.229 78.1362 47.1592 79.0518 48.2927 79.0518C49.4263 79.0518 50.3565 78.1217 50.3565 76.9881V62.5275C50.3565 61.9897 50.1385 61.452 49.7461 61.0596C49.3682 60.6818 48.8305 60.4492 48.2782 60.4492H33.8176C32.6695 60.4492 31.7539 61.3793 31.7539 62.5129C31.7684 63.6611 32.6986 64.5912 33.8322 64.5912Z" fill="#2865E0"/>
<path d="M41.5822 33.6009H67.4078C68.5559 33.6009 69.4715 32.6708 69.4715 31.5372C69.4715 30.4036 68.5414 29.4734 67.4078 29.4734H59.6615V16.5388C59.6615 16.0011 59.4435 15.4634 59.0511 15.071C58.6733 14.6931 58.1355 14.4606 57.5833 14.4606H56.5514V2.06372C56.5514 0.915597 55.6213 0 54.4877 0C53.3396 0 52.424 0.93013 52.424 2.06372V14.4606H51.3921C50.8544 14.4606 50.3166 14.6786 49.9243 15.071C49.5464 15.4488 49.3139 15.9866 49.3139 16.5388V29.4734H41.5676C40.4195 29.4734 39.5039 30.4036 39.5039 31.5372C39.5039 32.6708 40.4486 33.6009 41.5822 33.6009ZM53.4704 18.6026H54.5022H55.5341V29.4589H53.4704V18.6026Z" fill="#2865E0"/>
<path d="M34.1246 45.5378L40.1123 51.5691C40.5047 51.9615 41.0279 52.1795 41.5801 52.1795H67.4057C67.9435 52.1795 68.4812 51.9615 68.8591 51.5836L75.0793 45.407C75.4717 45.0146 75.6897 44.4914 75.6897 43.9391C75.6897 43.9391 75.6897 43.9391 75.6897 43.9246C75.6897 43.9246 75.6897 43.9246 75.6897 43.9101C75.6897 43.2561 75.3845 42.6747 74.9194 42.2969L68.8736 36.251C68.4957 35.8732 67.958 35.6406 67.4057 35.6406H41.5801C41.0424 35.6406 40.5047 35.8586 40.1123 36.251L33.9356 42.4277C33.4851 42.8782 33.2817 43.5031 33.3398 44.099C33.3979 44.6803 33.6886 45.189 34.1246 45.5378ZM66.5628 48.052H42.4521L40.4029 45.9883H68.6556L66.5628 48.052ZM42.4376 39.7826H66.5628L68.6265 41.8463H40.3739L42.4376 39.7826Z" fill="#2865E0"/>
<path d="M27.6427 85.2427H54.4711C54.4856 85.2427 54.4856 85.2427 54.5002 85.2427C54.5147 85.2427 54.5147 85.2427 54.5292 85.2427H81.3576C82.5057 85.2427 83.4213 84.3126 83.4213 83.179C83.4213 82.0309 82.4912 81.1153 81.3576 81.1153H56.5639V58.3853H67.4057C68.5538 58.3853 69.4694 57.4551 69.4694 56.3215C69.4694 55.1734 68.5393 54.2578 67.4057 54.2578H41.5801C40.432 54.2578 39.5164 55.1879 39.5164 56.3215C39.5164 57.4697 40.4465 58.3853 41.5801 58.3853H52.4219V81.1153H27.6282C26.48 81.1153 25.5645 82.0454 25.5645 83.179C25.5645 84.3271 26.4946 85.2427 27.6427 85.2427Z" fill="#2865E0"/>
<path d="M0 91.4085H4.63611V115.592H9.06875V91.4085H13.7049V87.3828H0V91.4085Z" fill="white"/>
<path d="M28.8035 108.908V94.0844C28.8035 89.5646 26.42 86.9922 22.0746 86.9922C17.7292 86.9922 15.3457 89.5646 15.3457 94.0844V108.908C15.3457 113.428 17.7292 116.001 22.0746 116.001C26.4346 116.001 28.8035 113.414 28.8035 108.908ZM19.7783 109.184V93.7937C19.7783 91.7736 20.6649 91.0179 22.0746 91.0179C23.4843 91.0179 24.3709 91.7882 24.3709 93.7937V109.184C24.3709 111.205 23.4843 111.96 22.0746 111.96C20.6649 111.96 19.7783 111.205 19.7783 109.184Z" fill="white"/>
<path d="M44.966 107.206C44.966 104.023 44.2393 101.931 42.0302 101.248V101.16C44.0068 100.361 44.9369 98.5008 44.9369 95.5941V93.8646C44.9369 89.5192 42.9604 87.3828 38.3679 87.3828H31.7988V115.592H36.2315V103.5H37.7575C39.7776 103.5 40.5333 104.343 40.5333 106.959V112.118C40.5333 114.415 40.6932 114.865 40.9402 115.577H45.4601C45.0241 114.531 44.9805 113.528 44.9805 112.147V107.206H44.966ZM40.5043 96.4952C40.5043 98.7478 39.5015 99.4745 37.8447 99.4745H36.2315V91.4085H38.2516C39.8212 91.4085 40.5043 92.295 40.5043 94.3152V96.4952Z" fill="white"/>
<path d="M61.1687 108.908V94.0844C61.1687 89.5646 58.7853 86.9922 54.4398 86.9922C50.0944 86.9922 47.7109 89.5646 47.7109 94.0844V108.908C47.7109 113.428 50.0944 116.001 54.4398 116.001C58.7853 116.001 61.1687 113.414 61.1687 108.908ZM56.7361 109.184C56.7361 111.205 55.8496 111.96 54.4398 111.96C53.0301 111.96 52.1436 111.19 52.1436 109.184V93.7937C52.1436 91.7736 53.0301 91.0179 54.4398 91.0179C55.8496 91.0179 56.7361 91.7882 56.7361 93.7937V109.184Z" fill="white"/>
<path d="M78.0568 87.3828H74.1037V104.27L69.6275 87.3828H64.1484V115.592H68.1015V94.9982L73.5805 115.592H78.0568V87.3828Z" fill="white"/>
<path d="M80.1914 91.4085H84.813V115.592H89.2456V91.4085H93.8817V87.3828H80.1914V91.4085Z" fill="white"/>
<path d="M102.272 86.9688C97.9264 86.9688 95.543 89.5411 95.543 94.061V108.885C95.543 113.405 97.9264 115.977 102.272 115.977C106.617 115.977 109.001 113.405 109.001 108.885V94.061C109.001 89.5557 106.617 86.9688 102.272 86.9688ZM104.568 109.176C104.568 111.196 103.682 111.951 102.272 111.951C100.862 111.951 99.9756 111.181 99.9756 109.176V93.7849C99.9756 91.7647 100.862 91.009 102.272 91.009C103.682 91.009 104.568 91.7793 104.568 93.7849V109.176Z" fill="white"/>
<path d="M22.1345 117.902L19.1406 126.303H20.9718L21.5386 124.573H24.6342L25.1865 126.303H27.0903L24.1255 117.902H22.1345ZM22.0182 123.134L23.1082 119.835L24.1691 123.134H22.0182Z" fill="#2865E0"/>
<path d="M33.7887 118.556C33.2945 118.12 32.626 117.902 31.7976 117.902H28.1934V126.303H29.9373V123.28H31.6813C32.5969 123.28 33.2945 123.076 33.7887 122.669C34.2828 122.262 34.5299 121.565 34.5299 120.562C34.5299 119.661 34.2828 118.992 33.7887 118.556ZM32.4661 121.536C32.2481 121.739 31.9284 121.841 31.536 121.841H29.9373V119.37H31.5215C31.9284 119.37 32.2336 119.457 32.4516 119.646C32.6696 119.835 32.7859 120.14 32.7859 120.576C32.8004 121.012 32.6841 121.332 32.4661 121.536Z" fill="#2865E0"/>
<path d="M41.5777 118.556C41.0836 118.12 40.4151 117.902 39.5867 117.902H35.9824V126.303H37.7264V123.28H39.4704C40.386 123.28 41.0836 123.076 41.5777 122.669C42.0719 122.262 42.3189 121.565 42.3189 120.562C42.3189 119.661 42.0719 118.992 41.5777 118.556ZM40.2407 121.536C40.0227 121.739 39.7029 121.841 39.3105 121.841H37.7264V119.37H39.3105C39.7175 119.37 40.0227 119.457 40.2407 119.646C40.4587 119.835 40.5749 120.14 40.5749 120.576C40.5749 121.012 40.4587 121.332 40.2407 121.536Z" fill="#2865E0"/>
<path d="M53.1177 119.152C52.7544 118.629 52.2748 118.28 51.6935 118.091C51.3447 117.975 50.9087 117.917 50.4 117.902H46.7812V126.303H50.4C51.6644 126.303 52.6091 125.779 53.2195 124.733C53.67 123.963 53.888 123.018 53.888 121.899C53.888 121.463 53.8299 120.998 53.7281 120.504C53.6119 120.024 53.4084 119.574 53.1177 119.152ZM51.8243 123.614C51.49 124.428 50.9232 124.835 50.0948 124.835H48.4671V119.356H50.0948C50.8942 119.356 51.4319 119.588 51.6935 120.039C51.9551 120.504 52.1004 121.158 52.1004 122.001C52.0859 122.64 51.9987 123.163 51.8243 123.614Z" fill="#2865E0"/>
<path d="M56.9532 122.626H61.0371V121.172H56.9532V119.385H61.4004V117.902H55.2383V126.303H61.6039V124.791H56.9532V122.626Z" fill="#2865E0"/>
<path d="M68.7877 122.135C68.468 121.874 67.9739 121.685 67.3344 121.525L65.8665 121.176C65.2997 121.045 64.9219 120.929 64.7475 120.827C64.4714 120.682 64.3406 120.449 64.3406 120.159C64.3406 119.839 64.4859 119.577 64.762 119.389C65.0382 119.2 65.4015 119.112 65.8665 119.112C66.288 119.112 66.6368 119.185 66.9129 119.316C67.3344 119.534 67.5524 119.883 67.596 120.391H69.2819C69.2528 119.505 68.9185 118.822 68.2936 118.342C67.6541 117.877 66.8984 117.645 65.9973 117.645C64.9219 117.645 64.108 117.892 63.5558 118.386C63.0035 118.88 62.7274 119.505 62.7274 120.261C62.7274 121.089 63.0035 121.685 63.5703 122.077C63.9046 122.31 64.515 122.528 65.416 122.717L66.3316 122.92C66.8693 123.036 67.2472 123.167 67.4943 123.312C67.7413 123.458 67.8576 123.676 67.8576 123.952C67.8576 124.432 67.6105 124.751 67.1019 124.926C66.8403 125.013 66.4915 125.056 66.07 125.056C65.3579 125.056 64.8638 124.882 64.5731 124.533C64.4132 124.344 64.3115 124.054 64.2534 123.676H62.582C62.582 124.548 62.9018 125.231 63.5267 125.74C64.1662 126.234 65.0236 126.495 66.1427 126.495C67.2181 126.495 68.0611 126.248 68.6569 125.74C69.2528 125.231 69.5435 124.591 69.5435 123.821C69.5289 123.095 69.2819 122.528 68.7877 122.135Z" fill="#2865E0"/>
<path d="M72.3573 117.902H70.6133V126.303H72.3573V117.902Z" fill="#2865E0"/>
<path d="M77.9101 123.196H79.8576C79.7704 123.748 79.5378 124.184 79.16 124.518C78.7821 124.852 78.3025 125.027 77.7067 125.027C77.1108 125.027 76.5731 124.809 76.0935 124.387C75.6284 123.966 75.3813 123.225 75.3813 122.193C75.3813 121.175 75.5993 120.405 76.0353 119.897C76.4713 119.388 77.0236 119.126 77.7067 119.126C78.0554 119.126 78.3752 119.184 78.6659 119.315C79.1891 119.548 79.5088 119.94 79.6396 120.521H81.369C81.2673 119.708 80.904 119.039 80.25 118.501C79.596 117.964 78.7385 117.688 77.6776 117.688C76.4423 117.688 75.454 118.094 74.7128 118.923C73.9571 119.737 73.5938 120.827 73.5938 122.193C73.5938 123.53 73.9571 124.591 74.6983 125.376C75.4104 126.146 76.326 126.538 77.4305 126.538C78.1136 126.538 78.6804 126.393 79.1454 126.117C79.4216 125.957 79.7123 125.681 80.061 125.274L80.2354 126.32H81.3981V121.815H77.8956V123.196H77.9101Z" fill="#2865E0"/>
<path d="M88.2324 123.759L84.8898 117.902H83.0586V126.303H84.6863V120.344L88.1016 126.303H89.8602V117.902H88.2324V123.759Z" fill="#2865E0"/>
</svg>
